#N canvas 376 50 1297 759 10;
#X obj 62 2 inlet BPM;
#X obj 897 42 inlet print-for-seq;
#X obj 955 531 s oscOut;
#X msg 781 409 /oled/gFlip 3;
#X obj 897 243 symbol;
#X msg 859 193 Play;
#X msg 897 193 Stop;
#X msg 964 192 Rec;
#X msg 933 192 Arm;
#X obj 338 403 s oscOut;
#X msg 189 375 /oled/gFlip 3;
#X obj 412 259 s oscOut;
#X msg 263 231 /oled/gFlip 3;
#X obj 188 691 s oscOut;
#X msg 39 663 /oled/gFlip 3;
#X msg 999 193 Ltch;
#X msg 1048 344 /oled/gFillArea 3 0 54 56 10 0;
#X obj 897 316 t b b a b, f 22;
#X msg 364 179 /oled/gPrintln 3 64 55 8 1 LINK:\$1;
#X obj 100 561 t b b a b;
#X obj 324 129 t b b a b;
#X obj 251 272 t b b a b;
#X obj 758 109 loadbang;
#X msg 344 204 /oled/gInvertArea 3 92 54 22 9;
#X msg 291 328 /oled/gPrintln 3 64 55 8 1 MIDI: \$1;
#X msg 152 624 /oled/gPrintln 3 64 55 8 1 BPM: \$1;
#X obj 67 318 list;
#X obj 62 44 route 1 2 3 4, f 44;
#X obj 290 69 t b;
#X msg 290 91 Off;
#X msg 1042 194 Dub;
#X obj 897 94 sel 0 1 2 3 4 5, f 34;
#X msg 1069 387 /oled/gPrintln 3 2 55 8 1 \$2Seq:\$1;
#X obj 897 275 pack s 1;
#X obj 1102 144 r cgSc-1-slots;
#X obj 1102 166 + 1;
#X msg 144 652 /oled/gInvertArea 3 92 54 22 9;
#X msg 273 352 /oled/gInvertArea 3 92 54 22 9;
#X msg 974 441 /oled/gInvertArea 3 31 54 27 9;
#X msg 909 464 /oled/gInvertArea 3 36 54 27 9;
#X obj 1102 188 t f f;
#X obj 1134 217 moses 10;
#X obj 1134 239 t b;
#X msg 1134 261 0;
#X obj 1187 239 t b;
#X msg 1186 261 1;
#X obj 903 409 spigot 0;
#X obj 974 409 spigot 0;
#X obj 1134 293 f;
#X obj 1165 409 ==;
#X msg 384 156 /oled/gFillArea 3 63 54 65 10 0;
#X msg 334 298 /oled/gFillArea 3 63 54 65 10 0;
#X msg 194 596 /oled/gFillArea 3 63 54 65 10 0;
#X connect 0 0 27 0;
#X connect 1 0 31 0;
#X connect 3 0 2 0;
#X connect 4 0 33 0;
#X connect 5 0 4 0;
#X connect 6 0 4 0;
#X connect 7 0 4 0;
#X connect 8 0 4 0;
#X connect 10 0 9 0;
#X connect 12 0 11 0;
#X connect 14 0 13 0;
#X connect 15 0 4 0;
#X connect 16 0 2 0;
#X connect 17 0 3 0;
#X connect 17 1 46 0;
#X connect 17 1 47 0;
#X connect 17 2 32 0;
#X connect 17 3 16 0;
#X connect 18 0 11 0;
#X connect 19 0 14 0;
#X connect 19 1 36 0;
#X connect 19 2 25 0;
#X connect 19 3 52 0;
#X connect 20 0 12 0;
#X connect 20 1 23 0;
#X connect 20 2 18 0;
#X connect 20 3 50 0;
#X connect 21 0 10 0;
#X connect 21 1 37 0;
#X connect 21 2 24 0;
#X connect 21 3 51 0;
#X connect 22 0 6 0;
#X connect 23 0 11 0;
#X connect 24 0 9 0;
#X connect 25 0 13 0;
#X connect 26 0 19 0;
#X connect 27 0 26 0;
#X connect 27 1 21 0;
#X connect 27 2 20 0;
#X connect 27 3 28 0;
#X connect 28 0 29 0;
#X connect 29 0 26 0;
#X connect 30 0 4 0;
#X connect 31 0 6 0;
#X connect 31 1 5 0;
#X connect 31 2 8 0;
#X connect 31 3 7 0;
#X connect 31 4 15 0;
#X connect 31 5 30 0;
#X connect 32 0 2 0;
#X connect 33 0 17 0;
#X connect 34 0 35 0;
#X connect 35 0 40 0;
#X connect 36 0 13 0;
#X connect 37 0 9 0;
#X connect 38 0 2 0;
#X connect 39 0 2 0;
#X connect 40 0 33 1;
#X connect 40 1 41 0;
#X connect 41 0 42 0;
#X connect 41 1 44 0;
#X connect 42 0 43 0;
#X connect 43 0 48 0;
#X connect 44 0 45 0;
#X connect 45 0 48 0;
#X connect 46 0 39 0;
#X connect 47 0 38 0;
#X connect 48 0 49 0;
#X connect 48 0 46 1;
#X connect 49 0 47 1;
#X connect 50 0 11 0;
#X connect 51 0 9 0;
#X connect 52 0 13 0;
