#N canvas 366 50 1297 759 10;
#X obj 62 2 inlet BPM;
#X obj 891 39 inlet print-for-seq;
#X obj 955 431 s oscOut;
#X msg 781 309 /oled/gFlip 3;
#X obj 897 193 symbol;
#X msg 859 163 Play;
#X msg 897 163 Stop;
#X msg 964 162 Rec;
#X msg 933 162 Arm;
#X obj 338 403 s oscOut;
#X msg 189 375 /oled/gFlip 3;
#X obj 412 259 s oscOut;
#X msg 263 231 /oled/gFlip 3;
#X obj 188 691 s oscOut;
#X msg 39 663 /oled/gFlip 3;
#X msg 999 163 Ltch;
#X msg 981 250 /oled/gFillArea 3 0 54 56 10 0;
#X obj 891 61 sel 0 1 2 3 4;
#X msg 334 298 /oled/gFillArea 3 56 54 72 10 0;
#X msg 384 156 /oled/gFillArea 3 56 54 72 10 0;
#X msg 194 596 /oled/gFillArea 3 56 54 72 10 0;
#X obj 897 216 t b b a b;
#X msg 939 279 /oled/gPrintln 3 2 55 8 1 Seq:\$1;
#X msg 364 179 /oled/gPrintln 3 64 55 8 1 LINK:\$1;
#X obj 100 561 t b b a b;
#X obj 324 129 t b b a b;
#X obj 251 272 t b b a b;
#X obj 758 79 loadbang;
#X msg 144 652 /oled/gInvertArea 3 92 54 22 9;
#X msg 344 204 /oled/gInvertArea 3 92 54 22 9;
#X msg 913 323 /oled/gInvertArea 3 24 54 27 9;
#X msg 291 328 /oled/gPrintln 3 64 55 8 1 MIDI: \$1;
#X msg 273 352 /oled/gInvertArea 3 98 54 22 9;
#X msg 152 624 /oled/gPrintln 3 64 55 8 1 BPM: \$1;
#X obj 67 318 list;
#X obj 62 44 route 1 2 3 4, f 44;
#X obj 290 69 t b;
#X msg 290 91 Off;
#X connect 0 0 35 0;
#X connect 1 0 17 0;
#X connect 3 0 2 0;
#X connect 4 0 21 0;
#X connect 5 0 4 0;
#X connect 6 0 4 0;
#X connect 7 0 4 0;
#X connect 8 0 4 0;
#X connect 10 0 9 0;
#X connect 12 0 11 0;
#X connect 14 0 13 0;
#X connect 15 0 4 0;
#X connect 16 0 2 0;
#X connect 17 0 6 0;
#X connect 17 1 5 0;
#X connect 17 2 8 0;
#X connect 17 3 7 0;
#X connect 17 4 15 0;
#X connect 18 0 9 0;
#X connect 19 0 11 0;
#X connect 20 0 13 0;
#X connect 21 0 3 0;
#X connect 21 1 30 0;
#X connect 21 2 22 0;
#X connect 21 3 16 0;
#X connect 22 0 2 0;
#X connect 23 0 11 0;
#X connect 24 0 14 0;
#X connect 24 1 28 0;
#X connect 24 2 33 0;
#X connect 24 3 20 0;
#X connect 25 0 12 0;
#X connect 25 1 29 0;
#X connect 25 2 23 0;
#X connect 25 3 19 0;
#X connect 26 0 10 0;
#X connect 26 1 32 0;
#X connect 26 2 31 0;
#X connect 26 3 18 0;
#X connect 27 0 6 0;
#X connect 28 0 13 0;
#X connect 29 0 11 0;
#X connect 30 0 2 0;
#X connect 31 0 9 0;
#X connect 32 0 9 0;
#X connect 33 0 13 0;
#X connect 34 0 24 0;
#X connect 35 0 34 0;
#X connect 35 1 26 0;
#X connect 35 2 25 0;
#X connect 35 3 36 0;
#X connect 36 0 37 0;
#X connect 37 0 34 0;
