#N canvas 20 50 1814 916 10;
#X msg 712 597 clear;
#X msg 575 260 loop \$1;
#X msg 638 261 quantize-length \$1;
#X obj 67 74 inlet;
#X obj 67 103 s \$0beat-clock;
#X obj 223 403 r \$0beat-clock;
#X obj 712 624 text define -k \$1;
#A set 0 length 1598 \; 0 note 62 100 \; 178 note 62 0 \; 305 note
62 100 \; 356 note 62 0 \; 403 note 62 100 \; 517 note 62 0 \; 641
note 62 100 \; 937 note 62 0 \; 980 note 62 100 \; 1043 note 62 0 \;
1105 note 62 100 \; 1265 note 62 0 \; 1333 note 62 100 \; 1466 note
62 0 \;;
#X obj 422 77 inlet;
#X obj 647 9 inlet;
#X obj 223 678 outlet;
#X msg 828 260 start-sync;
#X msg 1019 259 arm;
#X obj 578 400 r \$0beat-clock;
#X obj 730 795 outlet;
#X text 709 7 controls;
#X obj 680 571 t b b;
#X msg 680 649 rec;
#X text 291 679 events out;
#X text 476 74 events in;
#X msg 438 702 end;
#X msg 578 576 length \$1;
#X obj 311 443 r \$0player;
#X obj 780 333 s \$0player;
#X obj 997 303 s \$0recorder;
#X obj 680 491 r \$0recorder;
#X msg 780 259 start;
#X text 130 74 clock;
#X text 708 715 send all status out;
#X obj 647 47 t a a;
#X obj 587 78 s \$0status;
#X obj 730 735 r \$0status;
#X obj 923 377 s \$0status;
#X text 1006 378 send out stop status too;
#X obj 422 114 s \$0events-in;
#X obj 629 448 r \$0events-in;
#N canvas 4 50 1905 999 stop-all 0;
#X obj 98 58 inlet;
#X msg 148 128 stop;
#X obj 98 80 t b b b;
#X msg 109 129 stop;
#X msg 69 128 stop;
#X obj 171 181 outlet;
#X obj 117 193 outlet;
#X obj 51 184 outlet;
#X text 199 81 stop recorder \, player \, send stop status out;
#X connect 0 0 2 0;
#X connect 1 0 5 0;
#X connect 2 0 4 0;
#X connect 2 1 3 0;
#X connect 2 2 1 0;
#X connect 3 0 6 0;
#X connect 4 0 7 0;
#X restore 923 259 pd stop-all;
#X obj 946 189 t b;
#X obj 1017 193 t b b;
#X obj 1141 355 s \$0text;
#X obj 776 598 r \$0text;
#X obj 1104 321 list trim;
#X obj 1327 323 list trim;
#X obj 1327 299 list prepend read;
#X obj 1104 297 list prepend write;
#X obj 780 191 t b b b;
#X obj 679 82 route loop quantize-length play play-sync stop arm write
read overdub, f 123;
#X obj 223 517 t a a;
#X obj 255 642 s \$0-recycle;
#X msg 1545 230 start-sync;
#X obj 1545 254 s \$0player;
#X msg 1568 171 arm;
#X obj 1545 138 t b b b;
#X obj 1336 466 spigot 0;
#X msg 1461 475 0;
#X obj 970 329 s \$0overdub;
#X obj 1335 386 r \$0overdub;
#X obj 1335 407 route arm;
#X msg 1335 429 1;
#X obj 1336 528 t b b;
#X obj 1336 675 symbol \$1;
#X msg 1336 697 point \$1-o;
#X obj 1336 558 v \$0-v;
#X obj 1336 580 sel 0 1, f 23;
#X obj 1336 602 t b b;
#X msg 1368 623 1;
#X obj 1368 645 v \$0-v;
#X obj 1426 675 symbol \$1;
#X obj 1426 602 t b b;
#X obj 1458 645 v \$0-v;
#X msg 1426 697 point \$1;
#X msg 1458 623 0;
#X obj 1336 763 s \$0player;
#X obj 1378 196 makefilename %s-o;
#X obj 1378 175 symbol;
#X obj 1327 147 t a a b, f 15;
#X obj 1379 240 list trim;
#X obj 1379 216 list prepend read;
#X obj 1379 273 s \$0text-o;
#X obj 1153 121 t a a;
#X obj 1185 170 makefilename %s-o;
#X obj 1185 149 symbol;
#X obj 1186 214 list trim;
#X obj 1186 190 list prepend write;
#X obj 223 495 seq-player \$1;
#X obj 578 540 seq-recorder \$1;
#X obj 1336 488 route stop;
#X obj 867 187 t b b;
#X obj 578 422 spigot 1;
#X obj 629 469 spigot 1;
#X obj 680 515 spigot 1;
#X obj 733 358 r \$0-switcher;
#X obj 739 434 r \$0-recycle;
#X obj 739 456 spigot 0;
#X obj 792 406 ==;
#X msg 1028 650 clear;
#X obj 894 453 r \$0beat-clock;
#X obj 996 624 t b b;
#X msg 996 702 rec;
#X msg 894 629 length \$1;
#X obj 996 544 r \$0recorder;
#X obj 945 501 r \$0events-in;
#X obj 1094 650 r \$0text;
#X obj 1049 411 r \$0-switcher;
#X obj 1055 487 r \$0-recycle;
#X obj 1028 439 ==;
#X obj 1516 670 s \$0-switcher;
#X obj 1028 677 text define -k \$1-o;
#A set 0 length 1598 \; 0 note 62 100 \; 178 note 62 0 \; 305 note
62 100 \; 356 note 62 0 \; 403 note 62 100 \; 517 note 62 0 \; 641
note 62 100 \; 937 note 62 0 \; 980 note 62 100 \; 1043 note 62 0 \;
1105 note 62 100 \; 1265 note 62 0 \; 1333 note 62 100 \; 1466 note
62 0 \;;
#X obj 894 593 seq-recorder \$1-o;
#X obj 1568 197 s \$0recorder;
#X obj 894 475 spigot 0;
#X obj 945 522 spigot 0;
#X obj 997 568 spigot 0;
#X obj 1055 509 spigot 1;
#X connect 0 0 6 0;
#X connect 1 0 22 0;
#X connect 2 0 22 0;
#X connect 3 0 4 0;
#X connect 5 0 83 0;
#X connect 7 0 33 0;
#X connect 8 0 28 0;
#X connect 10 0 22 0;
#X connect 11 0 23 0;
#X connect 12 0 87 0;
#X connect 15 0 16 0;
#X connect 15 1 0 0;
#X connect 16 0 13 0;
#X connect 19 0 13 0;
#X connect 20 0 13 0;
#X connect 21 0 83 1;
#X connect 24 0 89 0;
#X connect 25 0 22 0;
#X connect 28 0 29 0;
#X connect 28 1 45 0;
#X connect 30 0 13 0;
#X connect 34 0 88 0;
#X connect 35 0 31 0;
#X connect 35 1 22 0;
#X connect 35 2 23 0;
#X connect 35 2 54 0;
#X connect 36 0 35 0;
#X connect 37 0 11 0;
#X connect 37 1 35 0;
#X connect 39 0 6 0;
#X connect 40 0 38 0;
#X connect 41 0 38 0;
#X connect 42 0 41 0;
#X connect 43 0 40 0;
#X connect 44 0 25 0;
#X connect 44 1 35 0;
#X connect 45 0 1 0;
#X connect 45 1 2 0;
#X connect 45 2 44 0;
#X connect 45 3 86 0;
#X connect 45 4 36 0;
#X connect 45 5 37 0;
#X connect 45 6 78 0;
#X connect 45 7 74 0;
#X connect 45 8 51 0;
#X connect 46 0 9 0;
#X connect 46 1 47 0;
#X connect 48 0 49 0;
#X connect 50 0 108 0;
#X connect 51 0 48 0;
#X connect 51 1 50 0;
#X connect 51 2 35 0;
#X connect 52 0 85 0;
#X connect 53 0 52 1;
#X connect 55 0 56 0;
#X connect 56 0 57 0;
#X connect 56 1 52 0;
#X connect 57 0 52 1;
#X connect 58 0 61 0;
#X connect 58 1 53 0;
#X connect 59 0 60 0;
#X connect 60 0 71 0;
#X connect 61 0 62 0;
#X connect 62 0 63 0;
#X connect 62 1 67 0;
#X connect 63 0 59 0;
#X connect 63 1 64 0;
#X connect 64 0 65 0;
#X connect 64 0 105 0;
#X connect 66 0 69 0;
#X connect 67 0 66 0;
#X connect 67 1 70 0;
#X connect 69 0 71 0;
#X connect 70 0 68 0;
#X connect 70 0 105 0;
#X connect 72 0 76 0;
#X connect 73 0 72 0;
#X connect 74 0 42 0;
#X connect 74 1 73 0;
#X connect 74 2 35 0;
#X connect 75 0 77 0;
#X connect 76 0 75 0;
#X connect 78 0 43 0;
#X connect 78 1 80 0;
#X connect 79 0 82 0;
#X connect 80 0 79 0;
#X connect 81 0 77 0;
#X connect 82 0 81 0;
#X connect 83 0 46 0;
#X connect 83 1 19 0;
#X connect 84 0 20 0;
#X connect 84 1 15 0;
#X connect 85 0 58 0;
#X connect 86 0 10 0;
#X connect 86 1 35 0;
#X connect 87 0 84 0;
#X connect 88 0 84 1;
#X connect 89 0 84 2;
#X connect 90 0 87 1;
#X connect 90 0 88 1;
#X connect 90 0 89 1;
#X connect 90 0 93 0;
#X connect 91 0 92 0;
#X connect 92 0 84 1;
#X connect 93 0 92 1;
#X connect 94 0 106 0;
#X connect 95 0 109 0;
#X connect 96 0 97 0;
#X connect 96 1 94 0;
#X connect 97 0 13 0;
#X connect 98 0 13 0;
#X connect 99 0 111 0;
#X connect 100 0 110 0;
#X connect 101 0 106 0;
#X connect 102 0 104 0;
#X connect 102 0 112 1;
#X connect 103 0 112 0;
#X connect 104 0 109 1;
#X connect 104 0 110 1;
#X connect 104 0 111 1;
#X connect 107 0 98 0;
#X connect 107 1 96 0;
#X connect 109 0 107 0;
#X connect 110 0 107 1;
#X connect 111 0 107 2;
#X connect 112 0 107 1;
