#N canvas 9 50 1814 916 10;
#X msg 712 547 clear;
#X msg 575 260 loop \$1;
#X msg 638 261 quantize-length \$1;
#X obj 66 74 inlet;
#X obj 67 103 s \$0beat-clock;
#X obj 223 403 r \$0beat-clock;
#X obj 223 495 seq-player \$1;
#X obj 578 490 seq-recorder \$1;
#X obj 712 574 text define -k \$1;
#A set 0 length 860 \; 0 note 60 100 \; 311 note 60 0 \; 699 note 60
100 \; 778 note 60 0 \;;
#X obj 422 77 inlet;
#X obj 658 79 inlet;
#X obj 223 678 outlet;
#X msg 828 260 start-sync;
#X msg 1019 259 arm;
#X obj 578 350 r \$0beat-clock;
#X obj 730 795 outlet;
#X text 720 77 controls;
#X obj 680 521 t b b;
#X msg 630 597 rec;
#X text 291 679 events out;
#X text 476 74 events in;
#X msg 492 586 end;
#X msg 578 526 length \$1;
#X obj 311 443 r \$0player;
#X obj 780 333 s \$0player;
#X obj 997 303 s \$0recorder;
#X obj 680 444 r \$0recorder;
#X msg 780 259 start;
#X text 129 74 clock;
#X text 708 625 send all status out;
#X obj 647 117 t a a;
#X obj 587 148 s \$0status;
#X obj 730 645 r \$0status;
#X obj 923 362 s \$0status;
#X text 1006 363 send out stop status too;
#X obj 422 114 s \$0events-in;
#X obj 629 378 r \$0events-in;
#N canvas 4 50 680 291 stop-all 0;
#X obj 98 58 inlet;
#X msg 148 128 stop;
#X obj 98 80 t b b b;
#X msg 109 129 stop;
#X msg 69 128 stop;
#X obj 171 181 outlet;
#X obj 117 193 outlet;
#X obj 51 184 outlet;
#X text 199 81 stop recorder \, player \, send stop status out;
#X connect 0 0 2 0;
#X connect 1 0 5 0;
#X connect 2 0 4 0;
#X connect 2 1 3 0;
#X connect 2 2 1 0;
#X connect 3 0 6 0;
#X connect 4 0 7 0;
#X restore 923 259 pd stop-all;
#X obj 946 189 t b;
#X obj 1017 193 t b b;
#X obj 1132 193 t a b;
#X obj 1145 305 s \$0text;
#X obj 776 548 r \$0text;
#X obj 1104 281 list trim;
#X obj 1241 283 list trim;
#X obj 1241 259 list prepend read;
#X obj 1104 257 list prepend write;
#X text 1190 186 stop sequencer before reading new file, f 23;
#X obj 789 191 t b b b;
#X obj 865 188 t b b b;
#X obj 689 152 route loop quantize-length play play-sync stop arm write
read overdub, f 87;
#X text 1250 517 overdub plays the seq-player \, which is reading text
\$1. but now the seq-recorder is writing to text define \$1-0 \, and
also receiving the seq-play messages.;
#X obj 255 605 spigot 0;
#X text 321 606 recycle;
#X obj 223 517 t a a;
#X obj 255 642 s \$0-recycle;
#X obj 1226 398 t b b b;
#X obj 978 448 r \$0-recycle;
#X obj 917 402 r \$0beat-clock;
#X obj 951 427 r \$0events-in;
#X obj 1406 247 s \$0overdub;
#X msg 1107 545 clear;
#X obj 1075 519 t b b;
#X obj 1171 546 r \$0text;
#X msg 1075 602 overdub;
#X obj 1107 572 text define -k \$1-o;
#A set;
#X obj 917 492 seq-overdub-module \$1-o;
#X msg 917 522 length \$1;
#X obj 1075 454 r \$0overdub;
#X connect 0 0 8 0;
#X connect 1 0 24 0;
#X connect 2 0 24 0;
#X connect 3 0 4 0;
#X connect 5 0 6 0;
#X connect 6 0 54 0;
#X connect 6 1 21 0;
#X connect 7 0 22 0;
#X connect 7 1 17 0;
#X connect 9 0 35 0;
#X connect 10 0 30 0;
#X connect 12 0 24 0;
#X connect 13 0 25 0;
#X connect 14 0 7 0;
#X connect 17 0 18 0;
#X connect 17 1 0 0;
#X connect 18 0 15 0;
#X connect 21 0 15 0;
#X connect 22 0 15 0;
#X connect 23 0 6 1;
#X connect 26 0 7 2;
#X connect 27 0 24 0;
#X connect 30 0 31 0;
#X connect 30 1 50 0;
#X connect 32 0 15 0;
#X connect 36 0 7 1;
#X connect 37 0 33 0;
#X connect 37 1 24 0;
#X connect 37 2 25 0;
#X connect 38 0 37 0;
#X connect 39 0 13 0;
#X connect 39 1 37 0;
#X connect 40 0 45 0;
#X connect 40 1 37 0;
#X connect 42 0 8 0;
#X connect 43 0 41 0;
#X connect 44 0 41 0;
#X connect 45 0 44 0;
#X connect 46 0 43 0;
#X connect 48 0 27 0;
#X connect 48 1 37 0;
#X connect 49 0 12 0;
#X connect 49 1 37 0;
#X connect 50 0 1 0;
#X connect 50 1 2 0;
#X connect 50 2 48 0;
#X connect 50 3 49 0;
#X connect 50 4 38 0;
#X connect 50 5 39 0;
#X connect 50 6 46 0;
#X connect 50 7 40 0;
#X connect 52 0 55 0;
#X connect 54 0 11 0;
#X connect 54 1 52 0;
#X connect 57 0 66 1;
#X connect 58 0 66 0;
#X connect 59 0 66 1;
#X connect 61 0 65 0;
#X connect 62 0 64 0;
#X connect 62 1 61 0;
#X connect 63 0 65 0;
#X connect 64 0 15 0;
#X connect 66 0 67 0;
#X connect 66 1 62 0;
#X connect 67 0 15 0;
#X connect 68 0 66 2;
