#N canvas 42 50 1815 918 10;
#X msg 1064 550 clear;
#X obj 67 74 inlet;
#X obj 67 103 s \$0beat-clock;
#X obj 223 393 r \$0beat-clock;
#X obj 312 77 inlet;
#X obj 587 69 inlet;
#X obj 223 678 outlet;
#X obj 916 349 r \$0beat-clock;
#X obj 730 795 outlet;
#X text 649 67 controls;
#X msg 1032 602 rec;
#X text 291 679 events out;
#X text 366 74 events in;
#X msg 438 702 end;
#X msg 916 529 length \$1;
#X obj 311 433 r \$0player;
#X obj 1032 443 r \$0recorder;
#X text 130 74 clock;
#X text 708 575 send all status out;
#X obj 730 595 r \$0status;
#X obj 312 200 s \$0events-in;
#X obj 974 401 r \$0events-in;
#X obj 223 517 t a a;
#X obj 255 642 s \$0-recycle;
#X obj 223 495 seq-player \$1;
#N canvas 28 50 1833 795 controls 0;
#X obj 94 15 inlet;
#X msg 143 457 loop \$1;
#X msg 206 458 quantize-length \$1;
#X msg 396 457 start-sync;
#X msg 624 349 arm;
#X msg 348 456 start;
#X obj 111 64 t a a;
#X obj 51 95 s \$0status;
#X obj 491 654 s \$0status;
#N canvas 6 50 1905 999 stop-all 0;
#X obj 98 58 inlet;
#X msg 148 128 stop;
#X obj 98 80 t b b b;
#X msg 109 129 stop;
#X msg 69 128 stop;
#X obj 171 181 outlet;
#X obj 117 193 outlet;
#X obj 51 184 outlet;
#X text 199 81 stop recorder \, player \, send stop status out;
#X connect 0 0 2 0;
#X connect 1 0 5 0;
#X connect 2 0 4 0;
#X connect 2 1 3 0;
#X connect 2 2 1 0;
#X connect 3 0 6 0;
#X connect 4 0 7 0;
#X restore 491 456 pd stop-all;
#X obj 1209 582 symbol;
#X obj 1158 534 t a a b, f 15;
#X obj 1210 647 list trim;
#X obj 1210 623 list prepend read;
#X obj 985 508 t a a;
#X obj 1017 536 symbol;
#X obj 1018 601 list trim;
#X obj 1018 577 list prepend write;
#X obj 410 301 t b b;
#X obj 1017 557 makefilename %s-R;
#X obj 1209 603 makefilename %s-R;
#X obj 1158 723 symbol;
#X obj 1159 788 list trim;
#X obj 1159 764 list prepend read;
#X obj 985 723 symbol;
#X obj 986 788 list trim;
#X obj 986 764 list prepend write;
#X obj 985 744 makefilename %s-L;
#X obj 1158 744 makefilename %s-L;
#X obj 348 298 t b b;
#X text 768 156 arm;
#X obj 612 453 r \$0-switch-rec;
#X obj 565 560 s \$0recorder;
#X obj 565 510 list prepend;
#X obj 565 532 list trim;
#X obj 1293 506 s \$0-switch-rec;
#X obj 1293 399 f 0;
#X obj 1293 433 sel 0 1, f 19;
#X obj 1311 364 r \$0-switch-rec;
#X msg 1293 455 1;
#X msg 1358 455 0;
#X msg 1505 304 1;
#X obj 1452 331 spigot 0;
#X obj 1452 353 t b b;
#X msg 1532 343 0;
#X obj 1452 425 f;
#X obj 1452 476 sel 0 1;
#X obj 491 429 r \$0-stop-all;
#X obj 1193 69 s \$0-switch-player;
#X obj 1335 69 s \$0-switch-rec;
#X obj 1193 11 loadbang;
#X msg 1193 33 0;
#X msg 1452 497 1;
#X msg 1488 499 0;
#X obj 1452 540 s \$0-switch-player;
#X obj 1260 562 s \$0-stop-all;
#X obj 986 794 s \$0textL;
#X obj 1210 680 s \$0textR;
#X obj 348 541 s \$0player;
#X obj 1083 204 t b b b b b, f 15;
#X obj 1185 271 s \$0-stop-all;
#X msg 943 246 start-sync;
#X msg 1038 267 start;
#X obj 143 99 route loop quantize-length play play-sync stop arm write
read od odsync, f 179;
#X msg 1108 324 arm;
#X obj 1189 335 r \$0-switch-rec;
#X obj 1108 418 s \$0recorder;
#X obj 1108 368 list prepend;
#X obj 1108 390 list trim;
#X obj 1016 318 s \$0player;
#X obj 1360 186 t b b b b b, f 15;
#X obj 1268 129 sel 0 1, f 18;
#X obj 1078 135 sel 0 1;
#X obj 363 343 s \$0-stop-all;
#X obj 631 182 s \$0-stop-all;
#X obj 631 154 t b;
#X obj 691 343 s \$0-stop-all;
#X obj 1492 377 r \$0-switch-player;
#X obj 624 311 t b b, f 11;
#X connect 0 0 6 0;
#X connect 1 0 58 0;
#X connect 2 0 58 0;
#X connect 3 0 58 0;
#X connect 4 0 33 0;
#X connect 5 0 58 0;
#X connect 6 0 7 0;
#X connect 6 1 63 0;
#X connect 9 0 8 0;
#X connect 9 1 58 0;
#X connect 9 2 33 0;
#X connect 10 0 20 0;
#X connect 11 0 21 0;
#X connect 11 1 10 0;
#X connect 11 2 55 0;
#X connect 12 0 57 0;
#X connect 13 0 12 0;
#X connect 14 0 24 0;
#X connect 14 1 15 0;
#X connect 15 0 19 0;
#X connect 16 0 57 0;
#X connect 17 0 16 0;
#X connect 18 0 3 0;
#X connect 18 1 73 0;
#X connect 19 0 17 0;
#X connect 20 0 13 0;
#X connect 21 0 28 0;
#X connect 22 0 56 0;
#X connect 23 0 22 0;
#X connect 24 0 27 0;
#X connect 25 0 56 0;
#X connect 26 0 25 0;
#X connect 27 0 26 0;
#X connect 28 0 23 0;
#X connect 29 0 5 0;
#X connect 29 1 73 0;
#X connect 31 0 33 1;
#X connect 33 0 34 0;
#X connect 34 0 32 0;
#X connect 36 0 37 0;
#X connect 37 0 39 0;
#X connect 37 1 40 0;
#X connect 38 0 36 1;
#X connect 39 0 35 0;
#X connect 40 0 35 0;
#X connect 41 0 42 1;
#X connect 42 0 43 0;
#X connect 43 0 45 0;
#X connect 43 1 44 0;
#X connect 44 0 42 1;
#X connect 45 0 46 0;
#X connect 46 0 52 0;
#X connect 46 1 53 0;
#X connect 47 0 9 0;
#X connect 50 0 51 0;
#X connect 51 0 48 0;
#X connect 51 0 49 0;
#X connect 52 0 54 0;
#X connect 53 0 54 0;
#X connect 59 0 62 0;
#X connect 59 1 64 0;
#X connect 59 2 36 0;
#X connect 59 3 41 0;
#X connect 59 4 60 0;
#X connect 61 0 69 0;
#X connect 62 0 69 0;
#X connect 63 0 1 0;
#X connect 63 1 2 0;
#X connect 63 2 29 0;
#X connect 63 3 18 0;
#X connect 63 4 75 0;
#X connect 63 5 78 0;
#X connect 63 6 14 0;
#X connect 63 7 11 0;
#X connect 63 8 72 0;
#X connect 63 9 71 0;
#X connect 64 0 67 0;
#X connect 65 0 67 1;
#X connect 67 0 68 0;
#X connect 68 0 66 0;
#X connect 70 0 61 0;
#X connect 70 1 64 0;
#X connect 70 2 36 0;
#X connect 70 3 41 0;
#X connect 70 4 60 0;
#X connect 71 0 42 0;
#X connect 71 1 70 0;
#X connect 72 0 42 0;
#X connect 72 1 59 0;
#X connect 75 0 74 0;
#X connect 77 0 45 1;
#X connect 78 0 4 0;
#X connect 78 1 76 0;
#X restore 587 102 pd controls;
#X msg 1429 610 clear;
#X obj 1281 413 r \$0beat-clock;
#X msg 1397 662 rec;
#X msg 1281 589 length \$1;
#X obj 1397 501 r \$0recorder;
#X obj 1339 461 r \$0events-in;
#X obj 1429 637 text define -k \$1-R;
#A set 0 length 2080 \; 0 note 72 100 \; 56 note 72 0 \; 95 note 72
100 \; 149 note 72 0 \; 247 note 71 100 \; 289 note 71 0 \; 336 note
71 100 \; 398 note 71 0 \; 482 note 69 100 \; 520 note 69 0 \; 577
note 69 100 \; 642 note 69 0 \; 730 note 67 100 \; 777 note 67 0 \;
820 note 67 100 \; 890 note 67 0 \; 975 note 65 100 \; 1000 note 65
100 \; 1057 note 65 0 \; 1082 note 65 0 \; 1139 note 64 100 \; 1152
note 67 100 \; 1215 note 64 0 \; 1233 note 67 0 \; 1300 note 62 100
\; 1314 note 69 100 \; 1476 note 69 0 \; 1482 note 62 0 \; 1551 note
60 100 \; 1557 note 71 100 \; 1693 note 71 0 \; 1721 note 60 0 \; 1780
note 72 100 \; 1790 note 62 100 \; 1955 note 72 0 \; 1981 note 62 0
\;;
#X obj 1064 577 text define -k \$1-L;
#A set 0 length 2056 \; 0 note 72 100 \; 57 note 72 0 \; 96 note 72
100 \; 150 note 72 0 \; 248 note 71 100 \; 290 note 71 0 \; 337 note
71 100 \; 399 note 71 0 \; 483 note 69 100 \; 521 note 69 0 \; 578
note 69 100 \; 643 note 69 0 \; 731 note 67 100 \; 778 note 67 0 \;
821 note 67 100 \; 891 note 67 0 \; 976 note 65 100 \; 1058 note 65
0 \; 1140 note 64 100 \; 1216 note 64 0 \; 1301 note 62 100 \; 1483
note 62 0 \; 1552 note 60 100 \; 1722 note 60 0 \; 1791 note 62 100
\; 1982 note 62 0 \; 2056 note 63 0 \; 2056 note 63 0 \; 2056 note
63 0 \;;
#X obj 974 423 route 0;
#X obj 1032 465 route 0;
#X obj 1339 483 route 1;
#X obj 1397 523 route 1;
#X obj 403 413 symbol \$1;
#X obj 403 359 sel 0 1, f 26;
#X obj 492 413 symbol \$1;
#X msg 403 435 point \$1-L;
#X msg 492 435 point \$1-R;
#X obj 403 332 r \$0-switch-player;
#X obj 255 576 list prepend;
#X obj 336 545 r \$0-switch-rec;
#X obj 255 598 list trim;
#X obj 1021 348 r \$0-recycle;
#X obj 1021 370 route 0;
#X obj 1398 416 r \$0-recycle;
#X obj 1398 438 route 1;
#X obj 393 109 r \$0-switch-rec;
#X obj 312 149 list prepend;
#X obj 312 171 list trim;
#X obj 1281 553 seq-recorder \$1-R;
#X obj 432 382 bng 15 250 50 0 empty empty empty 17 7 0 10 -262144
-1 -1;
#X obj 1128 551 r \$0textL;
#X obj 1493 611 r \$0textR;
#X obj 529 386 bng 15 250 50 0 empty empty empty 17 7 0 10 -262144
-1 -1;
#X text 882 142 there's a problem with lengths now;
#X obj 916 493 seq-recorder \$1-L;
#X obj 632 205 r \$0-switch-player;
#X obj 673 232 r \$0-switch-rec;
#X floatatom 632 227 5 0 0 0 - - -, f 5;
#X floatatom 673 254 5 0 0 0 - - -, f 5;
#X obj 1226 790 s \$0-switch-player;
#X obj 1258 765 s \$0-switch-rec;
#X msg 1226 710 0;
#X obj 1226 732 t f f;
#X obj 1032 524 t b b b;
#X obj 1397 584 t b b b;
#X connect 0 0 33 0;
#X connect 1 0 2 0;
#X connect 3 0 24 0;
#X connect 4 0 52 0;
#X connect 5 0 25 0;
#X connect 7 0 60 0;
#X connect 10 0 8 0;
#X connect 13 0 8 0;
#X connect 14 0 8 0;
#X connect 15 0 24 1;
#X connect 16 0 35 0;
#X connect 19 0 8 0;
#X connect 21 0 34 0;
#X connect 22 0 6 0;
#X connect 22 1 44 0;
#X connect 24 0 22 0;
#X connect 24 1 13 0;
#X connect 26 0 32 0;
#X connect 27 0 54 0;
#X connect 28 0 8 0;
#X connect 29 0 8 0;
#X connect 30 0 37 0;
#X connect 31 0 36 0;
#X connect 34 0 60 1;
#X connect 35 0 60 2;
#X connect 36 0 54 1;
#X connect 37 0 54 2;
#X connect 38 0 41 0;
#X connect 39 0 38 0;
#X connect 39 1 40 0;
#X connect 40 0 42 0;
#X connect 41 0 24 1;
#X connect 42 0 24 1;
#X connect 43 0 39 0;
#X connect 44 0 46 0;
#X connect 45 0 44 1;
#X connect 46 0 23 0;
#X connect 47 0 48 0;
#X connect 48 0 60 1;
#X connect 49 0 50 0;
#X connect 50 0 54 1;
#X connect 51 0 52 1;
#X connect 52 0 53 0;
#X connect 53 0 20 0;
#X connect 54 0 29 0;
#X connect 54 1 70 0;
#X connect 55 0 38 0;
#X connect 56 0 33 0;
#X connect 57 0 32 0;
#X connect 58 0 40 0;
#X connect 60 0 14 0;
#X connect 60 1 69 0;
#X connect 61 0 63 0;
#X connect 62 0 64 0;
#X connect 67 0 68 0;
#X connect 68 0 65 0;
#X connect 68 1 66 0;
#X connect 69 0 10 0;
#X connect 69 1 0 0;
#X connect 69 2 67 0;
#X connect 70 0 28 0;
#X connect 70 1 26 0;
