#N canvas 242 50 1534 925 10;
#N canvas 11 50 867 431 latch 0;
#X text 482 130 THE LATCH!;
#X msg 523 237 1;
#X msg 555 237 0;
#X obj 428 95 inlet;
#X obj 428 313 outlet;
#X obj 523 192 sel 4;
#X obj 555 212 t b;
#N canvas 8 50 759 486 latch-notes 0;
#N canvas 1010 59 817 631 latcher 0;
#X obj 220 378 bag;
#X msg 317 311 flush;
#X obj 169 81 t a a, f 17;
#X obj 285 257 t a b;
#X obj 169 44 inlet;
#X obj 285 475 outlet;
#X obj 443 58 inlet;
#X obj 285 126 stripnote;
#X obj 285 228 pack, f 9;
#X obj 443 142 t b;
#X obj 169 103 unpack;
#X obj 169 156 swap;
#X obj 169 198 pack;
#X obj 169 220 route 0;
#X obj 220 400 pack 1 0;
#X obj 169 241 pack 0 100;
#X connect 0 0 14 0;
#X connect 1 0 0 0;
#X connect 2 0 10 0;
#X connect 2 1 7 0;
#X connect 3 0 5 0;
#X connect 3 1 1 0;
#X connect 4 0 2 0;
#X connect 6 0 9 0;
#X connect 7 0 8 0;
#X connect 7 1 8 1;
#X connect 8 0 3 0;
#X connect 9 0 1 0;
#X connect 10 0 11 0;
#X connect 10 1 11 1;
#X connect 11 0 12 0;
#X connect 11 1 12 1;
#X connect 12 0 13 0;
#X connect 13 0 15 0;
#X connect 14 0 5 0;
#X connect 15 0 0 0;
#X restore 43 413 pd latcher;
#X obj 173 298 spigot 1;
#X obj 43 298 spigot 0;
#X obj 226 272 == 0;
#X obj 193 134 inlet;
#X obj 43 626 outlet;
#X obj 43 106 inlet;
#X text 241 135 bang enable / disables latch;
#X text 44 53 incoming notes get sent through latch if enabled \, or
directly to output if disabled;
#X obj 309 298 b;
#X obj 193 159 t f f b, f 17;
#X connect 0 0 5 0;
#X connect 1 0 5 0;
#X connect 2 0 0 0;
#X connect 3 0 1 1;
#X connect 4 0 10 0;
#X connect 6 0 2 0;
#X connect 6 0 1 0;
#X connect 9 0 0 1;
#X connect 10 0 2 1;
#X connect 10 1 3 0;
#X connect 10 2 9 0;
#X restore 428 270 pd latch-notes;
#X obj 523 167 r seq3-\$1-actions;
#X connect 1 0 7 1;
#X connect 2 0 7 1;
#X connect 3 0 7 0;
#X connect 5 0 1 0;
#X connect 5 1 6 0;
#X connect 6 0 2 0;
#X connect 7 0 4 0;
#X connect 8 0 5 0;
#X restore 49 135 pd latch;
#N canvas 237 50 1524 881 states 0;
#X obj 226 17 inlet;
#X msg 1180 172 stop;
#X msg 1121 171 0;
#X text 1156 173 =;
#X text 1156 203 =;
#X msg 1121 201 1;
#X msg 1180 202 start;
#X text 1156 233 =;
#X msg 1121 231 2;
#X msg 1180 232 recenable;
#X text 125 516 when something is recorded switch the variable to 3
;
#X text 1156 263 =;
#X msg 1120 261 3;
#X msg 1180 262 record;
#X text 1156 293 =;
#X msg 1120 291 4;
#X msg 1179 291 latch on;
#X text 112 580 latch off is simply in all of these \, eg right outlet
of select;
#X obj 129 660 r cg-midi-start;
#X obj 129 733 t f f, f 17;
#X obj 129 764 v seq3-\$1-state;
#X obj 245 764 s seq3-\$1-actions;
#X obj 129 682 t b;
#X msg 129 704 1;
#X obj 379 730 t f f, f 17;
#X obj 379 764 v seq3-\$1-state;
#X obj 495 764 s seq3-\$1-actions;
#X obj 379 682 t b;
#X obj 379 659 r cg-midi-stop;
#X msg 379 705 0;
#X text 533 14 the states controlled by the new shortcut approach;
#X obj 226 407 t f f;
#X obj 226 449 v seq3-\$1-state;
#X obj 258 429 s seq3-\$1-actions;
#X text 285 14 Controls State with 0-4;
#X obj 291 295 v seq3-\$1-state;
#X msg 226 127 0;
#X msg 291 361 0;
#X msg 365 376 1;
#X obj 423 323 v seq3-\$1-state;
#X obj 423 352 sel 4, f 14;
#X obj 518 381 t b;
#X msg 518 403 4;
#X obj 423 444 t f f;
#X obj 423 486 v seq3-\$1-state;
#X obj 455 466 s seq3-\$1-actions;
#X msg 423 377 0;
#X obj 291 317 sel 1, f 14;
#X obj 365 353 t b;
#X obj 357 130 v seq3-\$1-state;
#X obj 357 152 sel 2, f 7;
#X msg 357 175 0;
#X obj 403 175 t b;
#X obj 357 223 t f f;
#X obj 357 265 v seq3-\$1-state;
#X obj 389 245 s seq3-\$1-actions;
#X msg 403 198 2;
#X text 427 154 if 2 is on turn off \, otherwise turn on 2;
#X obj 1020 561 t b b b, f 22;
#X msg 1037 633 stop;
#X obj 1156 766 f 0;
#X msg 1142 647 0;
#X msg 1174 669 3;
#X msg 1211 663 6;
#X msg 1286 694 1;
#X msg 1260 659 4;
#X msg 1095 594 7;
#X obj 1020 663 del 50;
#X obj 1020 491 spigot;
#X obj 1095 797 f 0;
#X obj 1059 461 r seq3-\$1-actions;
#X obj 1142 603 r seq3-\$1-actions;
#X obj 1096 817 s seq3-\$1-led;
#X obj 623 183 v seq3-\$1-state;
#X obj 718 241 t b;
#X obj 623 304 t f f;
#X obj 623 346 v seq3-\$1-state;
#X obj 655 326 s seq3-\$1-actions;
#X obj 623 212 sel 1, f 14;
#X msg 623 237 1;
#X msg 718 263 1;
#X msg 1216 471 0;
#X msg 1248 493 3;
#X msg 1285 487 6;
#X msg 1316 502 1;
#X msg 1334 483 4;
#X obj 1216 427 r seq3-\$1-actions;
#X obj 1216 532 s seq3-\$1-led;
#X obj 1021 419 r beat-clock;
#X obj 1021 441 sel 0;
#X text 343 52 0 stops everything \, 1 is play toggle \, 2 is rec enabled
\, 3 is latch toggle \, 4 play and if playing keep playing \, 5 overdub
;
#X obj 230 104 sel 0 1 2 3 4 5, f 89;
#X text 1156 323 =;
#X msg 1120 321 5;
#X msg 1179 321 overdub;
#X obj 778 144 v seq3-\$1-state;
#X obj 778 166 sel 5;
#X msg 778 188 0;
#X obj 810 188 t b;
#X msg 810 210 5;
#X obj 784 246 t f f;
#X obj 784 288 v seq3-\$1-state;
#X obj 816 268 s seq3-\$1-actions;
#X obj 1216 449 sel 0 1 2 3 4 5, f 21;
#X obj 1142 625 sel 0 1 2 3 4 5, f 29;
#X msg 1302 662 2;
#X msg 1356 526 2;
#X connect 0 0 91 0;
#X connect 18 0 22 0;
#X connect 19 0 20 0;
#X connect 19 1 21 0;
#X connect 22 0 23 0;
#X connect 23 0 19 0;
#X connect 24 0 25 0;
#X connect 24 1 26 0;
#X connect 27 0 29 0;
#X connect 28 0 27 0;
#X connect 29 0 24 0;
#X connect 31 0 32 0;
#X connect 31 1 33 0;
#X connect 35 0 47 0;
#X connect 36 0 31 0;
#X connect 37 0 31 0;
#X connect 38 0 31 0;
#X connect 39 0 40 0;
#X connect 40 0 46 0;
#X connect 40 1 41 0;
#X connect 41 0 42 0;
#X connect 42 0 43 0;
#X connect 43 0 44 0;
#X connect 43 1 45 0;
#X connect 46 0 43 0;
#X connect 47 0 37 0;
#X connect 47 1 48 0;
#X connect 48 0 38 0;
#X connect 49 0 50 0;
#X connect 50 0 51 0;
#X connect 50 1 52 0;
#X connect 51 0 53 0;
#X connect 52 0 56 0;
#X connect 53 0 54 0;
#X connect 53 1 55 0;
#X connect 56 0 53 0;
#X connect 58 0 67 0;
#X connect 58 1 66 0;
#X connect 58 2 59 0;
#X connect 59 0 67 0;
#X connect 60 0 69 0;
#X connect 61 0 60 1;
#X connect 61 0 69 0;
#X connect 62 0 60 1;
#X connect 63 0 60 1;
#X connect 64 0 60 1;
#X connect 65 0 60 1;
#X connect 66 0 69 0;
#X connect 67 0 60 0;
#X connect 68 0 58 0;
#X connect 69 0 72 0;
#X connect 70 0 68 1;
#X connect 71 0 104 0;
#X connect 73 0 78 0;
#X connect 74 0 80 0;
#X connect 75 0 76 0;
#X connect 75 1 77 0;
#X connect 78 0 79 0;
#X connect 78 1 74 0;
#X connect 79 0 75 0;
#X connect 80 0 75 0;
#X connect 81 0 87 0;
#X connect 82 0 87 0;
#X connect 83 0 87 0;
#X connect 84 0 87 0;
#X connect 85 0 87 0;
#X connect 86 0 103 0;
#X connect 88 0 89 0;
#X connect 89 0 68 0;
#X connect 91 0 36 0;
#X connect 91 1 35 0;
#X connect 91 2 49 0;
#X connect 91 3 39 0;
#X connect 91 4 73 0;
#X connect 91 5 95 0;
#X connect 95 0 96 0;
#X connect 96 0 97 0;
#X connect 96 1 98 0;
#X connect 97 0 100 0;
#X connect 98 0 99 0;
#X connect 99 0 100 0;
#X connect 100 0 101 0;
#X connect 100 1 102 0;
#X connect 103 0 81 0;
#X connect 103 1 82 0;
#X connect 103 2 83 0;
#X connect 103 3 84 0;
#X connect 103 4 85 0;
#X connect 103 5 106 0;
#X connect 104 0 61 0;
#X connect 104 1 62 0;
#X connect 104 2 63 0;
#X connect 104 3 64 0;
#X connect 104 4 65 0;
#X connect 104 5 105 0;
#X connect 105 0 60 1;
#X connect 106 0 87 0;
#X restore 689 71 pd states;
#X obj 689 45 inlet aux;
#X obj 667 238 r seq3-\$1-actions;
#X obj 667 260 sel 2, f 12;
#X obj 49 84 t a a;
#N canvas 9 50 1183 836 countem 0;
#X obj 443 416 s seq3-\$1-count-notes;
#X obj 346 183 inlet;
#X obj 440 380 + 1;
#X msg 402 333 -1;
#X msg 445 333 1;
#X obj 364 303 t b b;
#X obj 364 394 max 0;
#X obj 424 302 t b b;
#X obj 346 205 unpack 0 0;
#X obj 413 231 sel 0;
#X obj 364 372 f 0;
#X connect 1 0 8 0;
#X connect 2 0 10 1;
#X connect 2 0 0 0;
#X connect 3 0 2 1;
#X connect 4 0 2 1;
#X connect 5 0 10 0;
#X connect 5 1 3 0;
#X connect 6 0 2 0;
#X connect 7 0 10 0;
#X connect 7 1 4 0;
#X connect 8 1 9 0;
#X connect 9 0 5 0;
#X connect 9 1 7 0;
#X connect 10 0 6 0;
#X restore 81 109 pd countem;
#X obj 49 161 t a a;
#X obj 81 190 s \$0-pass;
#X obj 49 62 inlet notes, f 17;
#X obj 385 62 r seq3-\$1-actions;
#X floatatom 385 84 5 0 0 0 - - -, f 5;
#X text 269 21 arg 1: unique number;
#X text 688 93 state control;
#X text 173 108 count the incoming notes;
#X text 126 137 latch incoming notes;
#X text 109 172 incoming notes get passed to the outlet;
#X text 429 84 heads up display of states;
#X obj 1230 372 loadbang;
#X msg 1152 523 quantize-length \$1;
#X obj 49 257 seq-format-event note;
#X msg 869 440 play;
#X msg 945 439 play-sync;
#X text 1173 499 round seq length to multiple of beats;
#X text 1280 456 loop or not;
#X obj 49 327 s \$0-events-in;
#N canvas 21 50 1296 821 the-knobs 0;
#X obj 280 211 r knob1;
#X obj 414 205 r knob2;
#X obj 532 208 r knob3;
#X obj 673 208 r knob4;
#X obj 503 439 outlet;
#X obj 221 295 seq-format-event knob1;
#X obj 401 293 seq-format-event knob2;
#X obj 566 292 seq-format-event knob3;
#X obj 747 289 seq-format-event knob4;
#X connect 0 0 5 0;
#X connect 1 0 6 0;
#X connect 2 0 7 0;
#X connect 3 0 8 0;
#X connect 5 0 4 0;
#X connect 6 0 4 0;
#X connect 7 0 4 0;
#X connect 8 0 4 0;
#X restore 88 289 pd the-knobs;
#X msg 1230 454 loop 1;
#X obj 1152 425 f \$2;
#X obj 806 231 r seq3-\$1-actions;
#X obj 984 296 tgl 15 0 empty empty empty 17 7 0 10 -262144 -1 -1 1
1;
#X obj 869 412 spigot;
#X obj 945 411 spigot;
#X text 1011 296 lock start to beat;
#X obj 984 200 loadbang;
#X obj 880 309 t b;
#X obj 945 347 ==;
#X obj 984 244 sel 0 1 2, f 28;
#X msg 984 266 0;
#X msg 1059 273 1;
#X obj 984 222 f \$2;
#X text 1096 196 see the quantize stuff for the global quantize options
with arg2;
#X text 1196 250 0 = no q at all. 1+2 wait for beat to start seq;
#X obj 1152 549 s \$0-arg-2-seq;
#X obj 869 486 s \$0-arg-2-seq;
#X obj 667 357 s \$0-arg-2-seq;
#X obj 869 354 t b b b;
#X msg 803 437 stop;
#X obj 854 41 inlet save and recall;
#X obj 854 84 s \$0-arg-2-seq;
#X msg 667 307 arm;
#X text 270 38 arg 2: 0 no sync \, 1 sync;
#X obj 489 351 s \$0-arg-2-seq;
#X obj 489 241 r seq3-\$1-actions;
#X obj 111 869 outlet;
#N canvas 14 50 468 388 flush-stuck-notes 0;
#X obj 167 212 bag;
#X msg 203 161 flush;
#X msg 160 254 \$1 0;
#X obj 124 157 t a a;
#X obj 137 354 outlet;
#X obj 101 22 inlet;
#X obj 258 20 inlet;
#X obj 238 107 bang;
#X obj 114 102 route note;
#X obj 248 61 route end stop;
#X obj 232 338 outlet other messages;
#X connect 0 0 2 0;
#X connect 1 0 0 0;
#X connect 2 0 4 0;
#X connect 3 0 4 0;
#X connect 3 1 0 0;
#X connect 5 0 8 0;
#X connect 6 0 9 0;
#X connect 7 0 1 0;
#X connect 8 0 3 0;
#X connect 8 1 10 0;
#X connect 9 0 7 0;
#X connect 9 1 7 0;
#X restore 111 611 pd flush-stuck-notes;
#X text 393 501 beat clock \, events \, controls in;
#X text 295 561 events and status out;
#X obj 200 450 r \$0-events-in;
#X obj 290 500 r \$0-arg-2-seq;
#N canvas 10 50 1276 866 auto-knobs 0;
#X obj 435 470 s seq3-\$1-k1;
#X obj 771 398 s seq3-\$1-k4;
#X obj 679 426 s seq3-\$1-k3;
#X obj 547 448 s seq3-\$1-k2;
#X obj 435 181 inlet;
#X text 849 417 <--- drop these as receives in the parent patches knobs!
;
#X obj 435 295 route knob1 knob2 knob3 knob4, f 64;
#X connect 4 0 6 0;
#X connect 6 0 0 0;
#X connect 6 1 3 0;
#X connect 6 2 2 0;
#X connect 6 3 1 0;
#X restore 248 691 pd auto-knobs;
#X obj 138 832 r \$0-pass;
#X obj 290 606 sel end rec, f 34;
#X obj 407 661 t f f;
#X obj 407 703 v seq3-\$1-state;
#X obj 439 683 s seq3-\$1-actions;
#X msg 407 639 3;
#X obj 290 580 symbol;
#X obj 111 411 r beat-clock;
#X obj 143 776 seq-format-event note;
#X obj 111 694 t a a;
#X obj 143 800 s \$0-overdub-in;
#X obj 111 545 seq-overdubber seq\$1, f 26;
#X msg 489 301 odsync 1;
#X obj 570 292 t b;
#X msg 570 319 odsync 0;
#X obj 806 269 sel 0 1 3 5;
#X obj 489 263 sel 5 2 3, f 12;
#X connect 0 0 7 0;
#X connect 2 0 1 0;
#X connect 3 0 4 0;
#X connect 4 0 50 0;
#X connect 5 0 0 0;
#X connect 5 1 6 0;
#X connect 7 0 20 0;
#X connect 7 1 8 0;
#X connect 9 0 5 0;
#X connect 10 0 11 0;
#X connect 18 0 27 0;
#X connect 18 0 28 0;
#X connect 19 0 43 0;
#X connect 20 0 25 0;
#X connect 21 0 44 0;
#X connect 22 0 44 0;
#X connect 26 0 25 0;
#X connect 27 0 43 0;
#X connect 28 0 19 0;
#X connect 29 0 76 0;
#X connect 30 0 36 0;
#X connect 30 0 32 1;
#X connect 31 0 21 0;
#X connect 32 0 22 0;
#X connect 34 0 40 0;
#X connect 35 0 47 0;
#X connect 36 0 31 1;
#X connect 37 0 38 0;
#X connect 37 1 39 0;
#X connect 37 2 39 0;
#X connect 38 0 30 0;
#X connect 39 0 30 0;
#X connect 40 0 37 0;
#X connect 46 0 31 0;
#X connect 46 1 32 0;
#X connect 47 0 44 0;
#X connect 48 0 49 0;
#X connect 50 0 45 0;
#X connect 53 0 77 0;
#X connect 55 0 70 0;
#X connect 55 1 60 0;
#X connect 58 0 72 1;
#X connect 59 0 72 2;
#X connect 61 0 54 0;
#X connect 62 1 66 0;
#X connect 63 0 64 0;
#X connect 63 1 65 0;
#X connect 66 0 63 0;
#X connect 67 0 62 0;
#X connect 68 0 72 0;
#X connect 69 0 71 0;
#X connect 70 0 54 0;
#X connect 70 1 69 0;
#X connect 72 0 55 0;
#X connect 72 1 55 1;
#X connect 72 1 67 0;
#X connect 73 0 52 0;
#X connect 74 0 75 0;
#X connect 75 0 52 0;
#X connect 76 0 35 0;
#X connect 76 1 46 0;
#X connect 76 4 35 0;
#X connect 77 0 73 0;
#X connect 77 3 74 0;
