#N canvas 832 448 769 550 10;
#X obj 180 19 inlet messages;
#N canvas 4 50 450 432 messages 0;
#X obj 37 37 inlet;
#X obj 37 360 s \$0-name;
#X obj 194 273 samplerate~;
#X obj 136 367 s \$0-len-samp;
#X obj 65 246 s \$0-speed;
#X obj 194 294 * 0.001;
#X obj 161 317 / 44.1;
#X obj 161 343 s \$0-len-ms;
#X obj 136 190 t a a b b, f 13;
#X obj 211 243 v \$0-length?;
#X msg 211 218 1;
#X obj 136 164 f \$2;
#X obj 157 142 r \$0-get-default;
#X obj 37 61 route name speed length-samples start size;
#X obj 186 113 s \$0-start;
#X obj 236 88 s \$0-size;
#X connect 0 0 13 0;
#X connect 2 0 5 0;
#X connect 5 0 6 1;
#X connect 6 0 7 0;
#X connect 8 0 3 0;
#X connect 8 1 6 0;
#X connect 8 2 2 0;
#X connect 8 3 10 0;
#X connect 10 0 9 0;
#X connect 11 0 8 0;
#X connect 12 0 11 1;
#X connect 13 0 1 0;
#X connect 13 1 4 0;
#X connect 13 2 11 0;
#X connect 13 3 14 0;
#X connect 13 4 15 0;
#X restore 180 40 pd messages;
#X obj 177 386 list prepend set;
#X obj 177 407 list trim;
#X obj 177 357 r \$0-name;
#X obj 19 432 +~ 1;
#X msg 19 275 0 0 \, 1 \$1 0;
#X obj 19 301 vline~;
#X obj 19 402 *~, f 10;
#X obj 34 145 r \$0-len-ms;
#X obj 19 169 f;
#X obj 128 166 r \$0-speed;
#X obj 19 20 inlet trigger;
#X text 505 10 simple oneshot sampler;
#X text 307 20 Arg1: Table Name to read from;
#X text 309 37 Arg2: size in samples;
#X obj 19 41 t b b;
#X obj 46 62 v \$0-length?;
#X obj 46 83 sel 0 1;
#X obj 46 114 s \$0-get-default;
#X obj 19 472 tabread4~ \$1;
#X obj 19 523 outlet~;
#X obj 19 250 * 1, f 7;
#X obj 112 281 r \$0-start;
#X obj 19 343 wrap~;
#X obj 19 493 *~, f 25;
#N canvas 4 50 549 340 duck 0;
#X obj 199 50 inlet~ 0-1 phase;
#X obj 200 89 -~ 0.5;
#X obj 200 110 *~ 0.5;
#X obj 200 177 clip~ 0 1;
#X obj 200 132 cos~;
#X obj 200 156 *~ 50;
#X obj 200 198 outlet~;
#X connect 0 0 1 0;
#X connect 1 0 2 0;
#X connect 2 0 4 0;
#X connect 3 0 6 0;
#X connect 4 0 5 0;
#X connect 5 0 3 0;
#X restore 165 443 pd duck if wrapped;
#X obj 58 167 r \$0-size;
#X obj 19 190 * 1, f 7;
#X obj 217 305 r \$0-size;
#X obj 190 265 r \$0-len-samp;
#X obj 190 286 - 2;
#X obj 190 329 *, f 5;
#X msg 128 187 1 \$1;
#X obj 128 208 /;
#X obj 19 322 +~ 0, f 16;
#X connect 0 0 1 0;
#X connect 2 0 3 0;
#X connect 3 0 20 0;
#X connect 4 0 2 0;
#X connect 5 0 20 0;
#X connect 6 0 7 0;
#X connect 7 0 35 0;
#X connect 8 0 5 0;
#X connect 9 0 10 1;
#X connect 10 0 28 0;
#X connect 11 0 33 0;
#X connect 12 0 16 0;
#X connect 16 0 10 0;
#X connect 16 1 17 0;
#X connect 17 0 18 0;
#X connect 18 0 19 0;
#X connect 20 0 25 0;
#X connect 22 0 6 0;
#X connect 23 0 35 1;
#X connect 24 0 8 0;
#X connect 24 0 26 0;
#X connect 25 0 21 0;
#X connect 26 0 25 1;
#X connect 27 0 28 1;
#X connect 28 0 22 0;
#X connect 29 0 32 1;
#X connect 30 0 31 0;
#X connect 31 0 32 0;
#X connect 32 0 8 1;
#X connect 33 0 34 0;
#X connect 34 0 22 1;
#X connect 35 0 24 0;
