#N canvas 498 212 1418 629 10;
#X text 13 7 cg-writeSf~;
#X obj 246 15 inlet~;
#X text 12 35 record a soundfile to disk \, mono;
#X text 296 15 sound to record \, mono;
#X obj 247 431 writesf~;
#X msg 521 224 start;
#X obj 246 286 *~;
#X obj 260 258 vline~;
#X obj 260 232 pack 0 3;
#X text 11 102 ARG 1: path to folder to store filess;
#X obj 604 385 makefilename;
#X obj 631 324 list prepend set;
#X obj 631 345 list trim;
#X obj 631 303 symbol \$1/%d.wav;
#X obj 604 431 list trim;
#X obj 534 15 inlet;
#X text 577 16 messages;
#X obj 534 67 v \$0-record;
#X obj 604 454 s \$0-2-write;
#X obj 269 399 r \$0-2-write;
#X obj 534 88 sel 0;
#X obj 534 109 t b b b b, f 18;
#X obj 639 150 f 1;
#X obj 639 171 v \$0-record;
#X obj 452 276 s \$0-2-vline;
#X obj 260 202 r \$0-2-vline;
#X obj 452 252 f 1;
#X obj 534 35 route start stop num, f 138;
#X obj 1084 67 s \$0-num;
#X obj 619 197 r \$0-num;
#X obj 604 224 f;
#X obj 604 259 t f b;
#X obj 521 245 s \$0-2-write;
#X obj 809 62 v \$0-record;
#X obj 809 83 sel 1;
#X obj 809 197 del 3;
#X obj 902 149 v \$0-record;
#X obj 902 128 f 2;
#X obj 809 104 t b b b, f 16;
#X obj 855 173 s \$0-2-vline;
#X obj 855 149 f 0;
#X obj 809 296 s \$0-2-write;
#X msg 809 275 stop;
#X obj 908 268 v \$0-record;
#X obj 908 247 f 0;
#X obj 809 219 t b b, f 17;
#X obj 604 410 list prepend open;
#X connect 1 0 6 0;
#X connect 5 0 32 0;
#X connect 6 0 4 0;
#X connect 7 0 6 1;
#X connect 8 0 7 0;
#X connect 10 0 46 0;
#X connect 11 0 12 0;
#X connect 12 0 10 0;
#X connect 13 0 11 0;
#X connect 14 0 18 0;
#X connect 15 0 27 0;
#X connect 17 0 20 0;
#X connect 19 0 4 0;
#X connect 20 0 21 0;
#X connect 21 0 26 0;
#X connect 21 1 5 0;
#X connect 21 2 30 0;
#X connect 21 3 22 0;
#X connect 22 0 23 0;
#X connect 25 0 8 0;
#X connect 26 0 24 0;
#X connect 27 0 17 0;
#X connect 27 1 33 0;
#X connect 27 2 28 0;
#X connect 29 0 30 1;
#X connect 30 0 31 0;
#X connect 31 0 10 0;
#X connect 31 1 13 0;
#X connect 33 0 34 0;
#X connect 34 0 38 0;
#X connect 35 0 45 0;
#X connect 37 0 36 0;
#X connect 38 0 35 0;
#X connect 38 1 40 0;
#X connect 38 2 37 0;
#X connect 40 0 39 0;
#X connect 42 0 41 0;
#X connect 44 0 43 0;
#X connect 45 0 42 0;
#X connect 45 1 44 0;
#X connect 46 0 14 0;
