#N canvas 4 50 450 300 10;
#N canvas 27 50 815 554 LINK 0;
#X msg 355 126 tempo \$1;
#X msg 144 127 resolution \$1;
#X msg 247 147 reset \$1 \$2;
#X obj 247 126 pack f f;
#X floatatom 266 247 5 0 0 1 beat_time - -, f 5;
#X floatatom 267 304 5 0 0 1 phase - -, f 5;
#X floatatom 180 285 5 0 0 1 step - -, f 5;
#X floatatom 378 246 5 0 0 1 tempo - -, f 5;
#X obj 59 105 tgl 15 0 empty empty empty 17 7 0 10 -262144 -1 -1 1
1;
#X obj 180 199 abl_link~ 1 0 4 134;
#X floatatom 355 107 5 0 0 2 tempo - -, f 5;
#X floatatom 292 107 5 0 0 2 quantum - -, f 5;
#X floatatom 247 107 5 0 0 2 beat - -, f 5;
#X floatatom 144 107 5 0 0 2 resolution - -, f 5;
#X msg 59 125 connect \$1;
#X floatatom 501 206 5 0 0 0 - - -, f 5;
#X obj 501 184 r #abl_link_num_peers;
#X obj 32 45 loadbang;
#X obj 32 67 delay 100;
#X obj 267 326 wrap;
#X floatatom 267 351 5 0 0 0 - - -, f 5;
#X obj 285 31 inlet;
#X obj 388 273 i;
#X obj 266 388 outlet;
#X obj 388 295 outlet;
#X obj 510 261 > 0;
#X obj 510 283 s link-session-present;
#X connect 0 0 9 0;
#X connect 1 0 9 0;
#X connect 2 0 9 0;
#X connect 3 0 2 0;
#X connect 5 0 19 0;
#X connect 7 0 22 0;
#X connect 8 0 14 0;
#X connect 9 0 6 0;
#X connect 9 1 5 0;
#X connect 9 2 4 0;
#X connect 9 3 7 0;
#X connect 10 0 0 0;
#X connect 11 0 3 1;
#X connect 12 0 3 0;
#X connect 13 0 1 0;
#X connect 14 0 9 0;
#X connect 15 0 25 0;
#X connect 16 0 15 0;
#X connect 17 0 18 0;
#X connect 18 0 8 0;
#X connect 19 0 20 0;
#X connect 20 0 23 0;
#X connect 21 0 10 0;
#X connect 22 0 24 0;
#X connect 25 0 26 0;
#X restore 202 106 pd LINK;
#X floatatom 248 135 5 0 0 1 tempo - -, f 5;
#X obj 202 134 * 360;
#X obj 202 156 i;
#X obj 202 182 clockfix;
#X obj 149 79 moses 10;
#X obj 153 16 inlet;
#X obj 158 233 outlet;
#X connect 0 0 2 0;
#X connect 0 1 1 0;
#X connect 2 0 3 0;
#X connect 3 0 4 0;
#X connect 4 0 7 0;
#X connect 5 1 0 0;
#X connect 6 0 5 0;
